<svg xmlns="http://www.w3.org/2000/svg" width="1200" height="800" viewBox="0 0 1200 800">
  <rect width="1200" height="800" fill="#e2ddd5"/>
  <rect x="0" y="0" width="1200" height="56" fill="rgba(58,53,48,0.04)"/>
  <circle cx="28" cy="28" r="4" fill="rgba(58,53,48,0.1)"/>
  <rect x="60" y="20" width="120" height="16" rx="4" fill="rgba(58,53,48,0.06)"/>
  <rect x="0" y="56" width="240" height="744" fill="rgba(58,53,48,0.02)"/>
  <rect x="24" y="80" width="192" height="32" rx="6" fill="rgba(58,53,48,0.05)"/>
  <rect x="24" y="124" width="192" height="32" rx="6" fill="rgba(58,53,48,0.03)"/>
  <rect x="24" y="168" width="192" height="32" rx="6" fill="rgba(58,53,48,0.03)"/>
  <rect x="24" y="212" width="192" height="32" rx="6" fill="rgba(58,53,48,0.03)"/>
  <rect x="280" y="88" width="480" height="280" rx="12" fill="rgba(58,53,48,0.03)" stroke="rgba(58,53,48,0.08)" stroke-width="1"/>
  <rect x="312" y="120" width="180" height="24" rx="4" fill="rgba(58,53,48,0.06)"/>
  <rect x="312" y="160" width="416" height="12" rx="4" fill="rgba(58,53,48,0.04)"/>
  <rect x="312" y="184" width="360" height="12" rx="4" fill="rgba(58,53,48,0.04)"/>
  <rect x="312" y="240" width="100" height="36" rx="8" fill="rgba(107,93,80,0.12)"/>
  <rect x="424" y="240" width="100" height="36" rx="8" fill="none" stroke="rgba(58,53,48,0.1)" stroke-width="1"/>
  <rect x="280" y="400" width="232" height="160" rx="12" fill="rgba(58,53,48,0.03)" stroke="rgba(58,53,48,0.06)" stroke-width="1"/>
  <rect x="528" y="400" width="232" height="160" rx="12" fill="rgba(58,53,48,0.03)" stroke="rgba(58,53,48,0.06)" stroke-width="1"/>
  <text x="600" y="720" text-anchor="middle" font-family="Inter, sans-serif" font-size="11" letter-spacing="3" fill="rgba(58,53,48,0.2)">product interfaces</text>
</svg>
