<svg xmlns="http://www.w3.org/2000/svg" width="1200" height="800" viewBox="0 0 1200 800">
  <rect width="1200" height="800" fill="#e5e0d9"/>
  <rect x="80" y="80" width="200" height="120" rx="8" fill="none" stroke="rgba(58,53,48,0.12)" stroke-width="1.5" stroke-dasharray="6 4"/>
  <rect x="320" y="80" width="200" height="120" rx="8" fill="none" stroke="rgba(58,53,48,0.12)" stroke-width="1.5" stroke-dasharray="6 4"/>
  <rect x="560" y="80" width="200" height="120" rx="8" fill="none" stroke="rgba(58,53,48,0.12)" stroke-width="1.5" stroke-dasharray="6 4"/>
  <rect x="80" y="260" width="200" height="120" rx="8" fill="none" stroke="rgba(58,53,48,0.12)" stroke-width="1.5" stroke-dasharray="6 4"/>
  <rect x="320" y="260" width="200" height="120" rx="8" fill="none" stroke="rgba(58,53,48,0.12)" stroke-width="1.5" stroke-dasharray="6 4"/>
  <rect x="560" y="260" width="200" height="120" rx="8" fill="none" stroke="rgba(58,53,48,0.12)" stroke-width="1.5" stroke-dasharray="6 4"/>
  <line x1="280" y1="140" x2="320" y2="140" stroke="rgba(58,53,48,0.15)" stroke-width="1"/>
  <line x1="520" y1="140" x2="560" y2="140" stroke="rgba(58,53,48,0.15)" stroke-width="1"/>
  <line x1="280" y1="320" x2="320" y2="320" stroke="rgba(58,53,48,0.15)" stroke-width="1"/>
  <line x1="520" y1="320" x2="560" y2="320" stroke="rgba(58,53,48,0.15)" stroke-width="1"/>
  <line x1="180" y1="200" x2="180" y2="260" stroke="rgba(58,53,48,0.15)" stroke-width="1"/>
  <line x1="420" y1="200" x2="420" y2="260" stroke="rgba(58,53,48,0.15)" stroke-width="1"/>
  <line x1="660" y1="200" x2="660" y2="260" stroke="rgba(58,53,48,0.15)" stroke-width="1"/>
  <circle cx="840" cy="180" r="60" fill="none" stroke="rgba(58,53,48,0.08)" stroke-width="1"/>
  <circle cx="840" cy="180" r="100" fill="none" stroke="rgba(58,53,48,0.06)" stroke-width="1"/>
  <rect x="80" y="480" width="680" height="8" rx="4" fill="rgba(58,53,48,0.06)"/>
  <rect x="80" y="510" width="520" height="8" rx="4" fill="rgba(58,53,48,0.04)"/>
  <rect x="80" y="540" width="600" height="8" rx="4" fill="rgba(58,53,48,0.04)"/>
  <text x="600" y="720" text-anchor="middle" font-family="Inter, sans-serif" font-size="11" letter-spacing="3" fill="rgba(58,53,48,0.2)" text-transform="uppercase">design systems</text>
</svg>
