<svg xmlns="http://www.w3.org/2000/svg" width="1200" height="800" viewBox="0 0 1200 800">
  <defs>
    <style>
      text { font-family: Inter, -apple-system, sans-serif; }
    </style>
  </defs>

  <!-- Background -->
  <rect width="1200" height="800" fill="#e8e4de"/>

  <!-- Layer labels -->
  <text x="96" y="94" font-size="9" letter-spacing="2" fill="rgba(58,53,48,0.35)" text-anchor="start" font-weight="500" text-transform="uppercase">PRIMITIVES</text>
  <text x="454" y="94" font-size="9" letter-spacing="2" fill="rgba(58,53,48,0.35)" text-anchor="start" font-weight="500">COMPONENTS</text>
  <text x="810" y="94" font-size="9" letter-spacing="2" fill="rgba(58,53,48,0.35)" text-anchor="start" font-weight="500">PATTERNS</text>

  <!-- Vertical dividers -->
  <line x1="420" y1="72" x2="420" y2="728" stroke="rgba(58,53,48,0.08)" stroke-width="1"/>
  <line x1="776" y1="72" x2="776" y2="728" stroke="rgba(58,53,48,0.08)" stroke-width="1"/>

  <!-- === PRIMITIVES === -->

  <!-- Colour token -->
  <rect x="96" y="130" width="272" height="100" rx="8" fill="rgba(58,53,48,0.04)" stroke="rgba(58,53,48,0.1)" stroke-width="1"/>
  <text x="116" y="154" font-size="8.5" letter-spacing="1.5" fill="rgba(58,53,48,0.4)" font-weight="600">COLOUR</text>
  <rect x="116" y="166" width="28" height="28" rx="4" fill="#1b2d71"/>
  <rect x="152" y="166" width="28" height="28" rx="4" fill="#00a89d"/>
  <rect x="188" y="166" width="28" height="28" rx="4" fill="#f8981d"/>
  <rect x="224" y="166" width="28" height="28" rx="4" fill="rgba(58,53,48,0.12)"/>
  <rect x="260" y="166" width="28" height="28" rx="4" fill="rgba(58,53,48,0.05)" stroke="rgba(58,53,48,0.15)" stroke-width="1"/>
  <text x="116" y="213" font-size="8" fill="rgba(58,53,48,0.3)">navy · teal · orange · neutral · surface</text>

  <!-- Type token -->
  <rect x="96" y="250" width="272" height="100" rx="8" fill="rgba(58,53,48,0.04)" stroke="rgba(58,53,48,0.1)" stroke-width="1"/>
  <text x="116" y="274" font-size="8.5" letter-spacing="1.5" fill="rgba(58,53,48,0.4)" font-weight="600">TYPE</text>
  <text x="116" y="298" font-size="18" fill="rgba(58,53,48,0.7)" font-weight="300" letter-spacing="-0.5">Aa</text>
  <text x="160" y="294" font-size="13" fill="rgba(58,53,48,0.5)" font-weight="500">Aa</text>
  <text x="195" y="292" font-size="9" fill="rgba(58,53,48,0.4)" font-weight="400">Aa</text>
  <text x="116" y="333" font-size="8" fill="rgba(58,53,48,0.3)">display · heading · body · caption</text>

  <!-- Space token -->
  <rect x="96" y="370" width="272" height="100" rx="8" fill="rgba(58,53,48,0.04)" stroke="rgba(58,53,48,0.1)" stroke-width="1"/>
  <text x="116" y="394" font-size="8.5" letter-spacing="1.5" fill="rgba(58,53,48,0.4)" font-weight="600">SPACE</text>
  <rect x="116" y="406" width="4" height="4" rx="1" fill="rgba(58,53,48,0.25)"/>
  <rect x="124" y="406" width="8" height="8" rx="1" fill="rgba(58,53,48,0.25)"/>
  <rect x="136" y="406" width="12" height="12" rx="1" fill="rgba(58,53,48,0.25)"/>
  <rect x="152" y="406" width="16" height="16" rx="1" fill="rgba(58,53,48,0.25)"/>
  <rect x="172" y="406" width="24" height="24" rx="1" fill="rgba(58,53,48,0.2)"/>
  <rect x="200" y="406" width="36" height="36" rx="1" fill="rgba(58,53,48,0.15)"/>
  <text x="116" y="453" font-size="8" fill="rgba(58,53,48,0.3)">4 · 8 · 12 · 16 · 24 · 36 · 48 · 64</text>

  <!-- Radius token -->
  <rect x="96" y="490" width="272" height="80" rx="8" fill="rgba(58,53,48,0.04)" stroke="rgba(58,53,48,0.1)" stroke-width="1"/>
  <text x="116" y="514" font-size="8.5" letter-spacing="1.5" fill="rgba(58,53,48,0.4)" font-weight="600">RADIUS</text>
  <rect x="116" y="525" width="32" height="24" rx="2" fill="none" stroke="rgba(58,53,48,0.25)" stroke-width="1.5"/>
  <rect x="156" y="525" width="32" height="24" rx="6" fill="none" stroke="rgba(58,53,48,0.25)" stroke-width="1.5"/>
  <rect x="196" y="525" width="32" height="24" rx="12" fill="none" stroke="rgba(58,53,48,0.25)" stroke-width="1.5"/>
  <rect x="236" y="522" width="24" height="28" rx="12" fill="none" stroke="rgba(58,53,48,0.25)" stroke-width="1.5"/>

  <!-- === CONNECTOR LINES === -->

  <!-- Primitives → Button component -->
  <path d="M368 180 C420 180 440 260 454 260" fill="none" stroke="rgba(58,53,48,0.12)" stroke-width="1" stroke-dasharray="4 3"/>
  <path d="M368 300 C420 300 440 260 454 260" fill="none" stroke="rgba(58,53,48,0.12)" stroke-width="1" stroke-dasharray="4 3"/>
  <path d="M368 420 C420 420 440 440 454 440" fill="none" stroke="rgba(58,53,48,0.12)" stroke-width="1" stroke-dasharray="4 3"/>
  <path d="M368 300 C420 300 440 440 454 440" fill="none" stroke="rgba(58,53,48,0.12)" stroke-width="1" stroke-dasharray="4 3"/>
  <path d="M368 180 C420 180 440 600 454 600" fill="none" stroke="rgba(58,53,48,0.08)" stroke-width="1" stroke-dasharray="4 3"/>

  <!-- === COMPONENTS === -->

  <!-- Button component -->
  <rect x="454" y="228" width="270" height="88" rx="8" fill="rgba(58,53,48,0.04)" stroke="rgba(58,53,48,0.1)" stroke-width="1"/>
  <text x="474" y="252" font-size="8.5" letter-spacing="1.5" fill="rgba(58,53,48,0.4)" font-weight="600">BUTTON</text>
  <rect x="474" y="263" width="88" height="32" rx="4" fill="#1b2d71"/>
  <text x="518" y="284" font-size="10" fill="white" text-anchor="middle" font-weight="500">Primary</text>
  <rect x="572" y="263" width="80" height="32" rx="4" fill="none" stroke="rgba(58,53,48,0.25)" stroke-width="1.5"/>
  <text x="612" y="284" font-size="10" fill="rgba(58,53,48,0.6)" text-anchor="middle">Secondary</text>
  <rect x="662" y="263" width="52" height="32" rx="16" fill="rgba(58,53,48,0.06)" stroke="rgba(58,53,48,0.12)" stroke-width="1"/>
  <text x="688" y="284" font-size="10" fill="rgba(58,53,48,0.5)" text-anchor="middle">Text</text>

  <!-- Tag component -->
  <rect x="454" y="334" width="270" height="88" rx="8" fill="rgba(58,53,48,0.04)" stroke="rgba(58,53,48,0.1)" stroke-width="1"/>
  <text x="474" y="358" font-size="8.5" letter-spacing="1.5" fill="rgba(58,53,48,0.4)" font-weight="600">TAG</text>
  <rect x="474" y="369" width="60" height="22" rx="11" fill="rgba(0,168,157,0.12)" stroke="rgba(0,168,157,0.3)" stroke-width="1"/>
  <text x="504" y="384" font-size="9" fill="#00a89d" text-anchor="middle" font-weight="500">Science</text>
  <rect x="542" y="369" width="54" height="22" rx="11" fill="rgba(27,45,113,0.08)" stroke="rgba(27,45,113,0.2)" stroke-width="1"/>
  <text x="569" y="384" font-size="9" fill="#1b2d71" text-anchor="middle" font-weight="500">Year 8</text>
  <rect x="604" y="369" width="64" height="22" rx="11" fill="rgba(248,152,29,0.1)" stroke="rgba(248,152,29,0.3)" stroke-width="1"/>
  <text x="636" y="384" font-size="9" fill="#c47a10" text-anchor="middle" font-weight="500">Interactive</text>
  <rect x="676" y="369" width="38" height="22" rx="11" fill="rgba(58,53,48,0.06)" stroke="rgba(58,53,48,0.12)" stroke-width="1"/>
  <text x="695" y="384" font-size="9" fill="rgba(58,53,48,0.5)" text-anchor="middle">+4</text>

  <!-- Input component -->
  <rect x="454" y="440" width="270" height="88" rx="8" fill="rgba(58,53,48,0.04)" stroke="rgba(58,53,48,0.1)" stroke-width="1"/>
  <text x="474" y="464" font-size="8.5" letter-spacing="1.5" fill="rgba(58,53,48,0.4)" font-weight="600">INPUT</text>
  <rect x="474" y="475" width="230" height="36" rx="6" fill="white" stroke="rgba(58,53,48,0.18)" stroke-width="1.5"/>
  <text x="490" y="498" font-size="11" fill="rgba(58,53,48,0.3)" font-weight="300">Search videos...</text>
  <rect x="686" y="482" width="12" height="2" rx="1" fill="rgba(58,53,48,0.2)"/>
  <rect x="686" y="488" width="10" height="2" rx="1" fill="rgba(58,53,48,0.2)"/>
  <rect x="686" y="494" width="12" height="2" rx="1" fill="rgba(58,53,48,0.2)"/>

  <!-- Card component -->
  <rect x="454" y="546" width="270" height="120" rx="8" fill="rgba(58,53,48,0.04)" stroke="rgba(58,53,48,0.1)" stroke-width="1"/>
  <text x="474" y="570" font-size="8.5" letter-spacing="1.5" fill="rgba(58,53,48,0.4)" font-weight="600">CARD</text>
  <rect x="474" y="581" width="230" height="70" rx="6" fill="white" stroke="rgba(58,53,48,0.08)" stroke-width="1"/>
  <rect x="474" y="581" width="120" height="70" rx="6" fill="rgba(27,45,113,0.08)"/>
  <rect x="492" y="591" width="88" height="10" rx="2" fill="rgba(27,45,113,0.25)"/>
  <rect x="492" y="607" width="72" height="7" rx="2" fill="rgba(27,45,113,0.12)"/>
  <text x="608" y="598" font-size="8.5" fill="rgba(58,53,48,0.7)" font-weight="500">Video title here</text>
  <text x="608" y="612" font-size="7.5" fill="rgba(58,53,48,0.35)">Year 8 · Science · 12 min</text>
  <rect x="608" y="622" width="44" height="18" rx="4" fill="#00a89d"/>
  <text x="630" y="635" font-size="8" fill="white" text-anchor="middle" font-weight="500">Watch</text>

  <!-- Component → Pattern connectors -->
  <path d="M724 272 C776 272 796 380 810 380" fill="none" stroke="rgba(58,53,48,0.12)" stroke-width="1" stroke-dasharray="4 3"/>
  <path d="M724 378 C776 378 796 380 810 380" fill="none" stroke="rgba(58,53,48,0.12)" stroke-width="1" stroke-dasharray="4 3"/>
  <path d="M724 484 C776 484 796 560 810 560" fill="none" stroke="rgba(58,53,48,0.12)" stroke-width="1" stroke-dasharray="4 3"/>
  <path d="M724 606 C776 606 796 560 810 560" fill="none" stroke="rgba(58,53,48,0.12)" stroke-width="1" stroke-dasharray="4 3"/>

  <!-- === PATTERNS === -->

  <!-- Navigation pattern -->
  <rect x="810" y="320" width="290" height="116" rx="8" fill="rgba(58,53,48,0.04)" stroke="rgba(58,53,48,0.1)" stroke-width="1"/>
  <text x="830" y="344" font-size="8.5" letter-spacing="1.5" fill="rgba(58,53,48,0.4)" font-weight="600">NAVIGATION</text>
  <rect x="830" y="356" width="250" height="64" rx="5" fill="white" stroke="rgba(58,53,48,0.1)" stroke-width="1"/>
  <rect x="830" y="356" width="250" height="20" rx="5" fill="rgba(27,45,113,0.05)"/>
  <text x="846" y="370" font-size="8.5" fill="#1b2d71" font-weight="700">ClickView</text>
  <text x="910" y="370" font-size="8" fill="rgba(58,53,48,0.45)">Browse</text>
  <text x="950" y="370" font-size="8" fill="rgba(58,53,48,0.45)">Library</text>
  <text x="992" y="370" font-size="8" fill="rgba(58,53,48,0.45)">Assign</text>
  <!-- sidebar lines -->
  <rect x="830" y="376" width="40" height="6" rx="2" fill="rgba(27,45,113,0.12)"/>
  <rect x="830" y="386" width="250" height="1" fill="rgba(58,53,48,0.06)"/>
  <rect x="830" y="393" width="250" height="8" rx="2" fill="rgba(58,53,48,0.04)"/>
  <rect x="830" y="404" width="250" height="8" rx="2" fill="rgba(58,53,48,0.04)"/>
  <rect x="830" y="415" width="250" height="8" rx="2" fill="rgba(58,53,48,0.04)"/>

  <!-- Search + filter pattern -->
  <rect x="810" y="454" width="290" height="116" rx="8" fill="rgba(58,53,48,0.04)" stroke="rgba(58,53,48,0.1)" stroke-width="1"/>
  <text x="830" y="478" font-size="8.5" letter-spacing="1.5" fill="rgba(58,53,48,0.4)" font-weight="600">SEARCH + FILTER</text>
  <rect x="830" y="490" width="180" height="28" rx="5" fill="white" stroke="rgba(58,53,48,0.18)" stroke-width="1"/>
  <text x="844" y="509" font-size="9" fill="rgba(58,53,48,0.3)">Year 8 science...</text>
  <rect x="830" y="526" width="40" height="20" rx="10" fill="rgba(0,168,157,0.12)" stroke="rgba(0,168,157,0.3)" stroke-width="1"/>
  <text x="850" y="540" font-size="8" fill="#00a89d" text-anchor="middle">Year 8</text>
  <rect x="876" y="526" width="46" height="20" rx="10" fill="rgba(58,53,48,0.05)" stroke="rgba(58,53,48,0.12)" stroke-width="1"/>
  <text x="899" y="540" font-size="8" fill="rgba(58,53,48,0.5)" text-anchor="middle">Science</text>
  <rect x="928" y="526" width="38" height="20" rx="10" fill="rgba(58,53,48,0.05)" stroke="rgba(58,53,48,0.12)" stroke-width="1"/>
  <text x="947" y="540" font-size="8" fill="rgba(58,53,48,0.5)" text-anchor="middle">Video</text>
  <rect x="972" y="526" width="52" height="20" rx="10" fill="rgba(58,53,48,0.05)" stroke="rgba(58,53,48,0.12)" stroke-width="1"/>
  <text x="998" y="540" font-size="8" fill="rgba(58,53,48,0.5)" text-anchor="middle">+ Filter</text>
  <text x="830" y="563" font-size="7.5" fill="rgba(58,53,48,0.3)">128 results · sorted by relevance</text>

  <!-- Bottom note -->
  <text x="600" y="754" font-size="8.5" fill="rgba(58,53,48,0.25)" text-anchor="middle" letter-spacing="0.5">tokens → components → patterns · the system behind every screen</text>
</svg>
