<svg xmlns="http://www.w3.org/2000/svg" width="1200" height="800" viewBox="0 0 1200 800">
  <rect width="1200" height="800" fill="#dfd9d1"/>
  <line x1="600" y1="80" x2="600" y2="700" stroke="rgba(58,53,48,0.06)" stroke-width="1"/>
  <line x1="100" y1="400" x2="1100" y2="400" stroke="rgba(58,53,48,0.06)" stroke-width="1"/>
  <circle cx="600" cy="400" r="180" fill="none" stroke="rgba(58,53,48,0.08)" stroke-width="1"/>
  <circle cx="600" cy="400" r="120" fill="none" stroke="rgba(58,53,48,0.06)" stroke-width="1"/>
  <circle cx="600" cy="400" r="60" fill="none" stroke="rgba(58,53,48,0.04)" stroke-width="1"/>
  <circle cx="480" cy="300" r="8" fill="rgba(107,93,80,0.2)"/>
  <circle cx="720" cy="320" r="8" fill="rgba(107,93,80,0.2)"/>
  <circle cx="560" cy="500" r="8" fill="rgba(107,93,80,0.2)"/>
  <circle cx="680" cy="480" r="8" fill="rgba(107,93,80,0.2)"/>
  <circle cx="600" cy="280" r="8" fill="rgba(107,93,80,0.2)"/>
  <line x1="480" y1="300" x2="600" y2="280" stroke="rgba(58,53,48,0.1)" stroke-width="1"/>
  <line x1="600" y1="280" x2="720" y2="320" stroke="rgba(58,53,48,0.1)" stroke-width="1"/>
  <line x1="720" y1="320" x2="680" y2="480" stroke="rgba(58,53,48,0.1)" stroke-width="1"/>
  <line x1="680" y1="480" x2="560" y2="500" stroke="rgba(58,53,48,0.1)" stroke-width="1"/>
  <line x1="560" y1="500" x2="480" y2="300" stroke="rgba(58,53,48,0.1)" stroke-width="1"/>
  <text x="460" y="288" font-family="Inter, sans-serif" font-size="9" letter-spacing="2" fill="rgba(58,53,48,0.25)">map</text>
  <text x="728" y="316" font-family="Inter, sans-serif" font-size="9" letter-spacing="2" fill="rgba(58,53,48,0.25)">frame</text>
  <text x="552" y="520" font-family="Inter, sans-serif" font-size="9" letter-spacing="2" fill="rgba(58,53,48,0.25)">connect</text>
  <text x="688" y="488" font-family="Inter, sans-serif" font-size="9" letter-spacing="2" fill="rgba(58,53,48,0.25)">reveal</text>
  <text x="600" y="720" text-anchor="middle" font-family="Inter, sans-serif" font-size="11" letter-spacing="3" fill="rgba(58,53,48,0.2)">visual thinking</text>
</svg>
